# xmcd
#
# Track frame offsets:
#	150
#	11057
#	19317
#	31515
#	43472
#	53085
#	64745
#	72052
#	80145
#	88800
#	97755
#	110262
#	120597
#	131587
#	139010
#	150577
#	160347
#	169585
#	179720
#	191330
#	203327
#	213355
#	224877
#	237432
#	250032
#	264215
#	275325
#	285167
#
# Disc length: 3992 seconds
#
# Revision: 0
# Processed by: cddbd v1.5.1PL0 Copyright (c) Steve Scherf et al.
# Submitted via: audiograbber 1.83.01
#
DISCID=860f961c
DTITLE=Carl Mann - Rockin' Man
DYEAR=1996
DGENRE=Country
TTITLE0=Mona Lisa
TTITLE1=Foolish One
TTITLE2=Rockin' Love
TTITLE3=Pretend
TTITLE4=Some Enchanted Evening
TTITLE5=I Can't Forget You
TTITLE6=Look At That Moon
TTITLE7=Take These Chains From My Heart
TTITLE8=Too Young
TTITLE9=South Of The Border
TTITLE10=Kansas City
TTITLE11=The Wayward Wind
TTITLE12=Ain't Got No Home
TTITLE13=Blueberry Hill
TTITLE14=I'll Always Love You Darling
TTITLE15=Baby I Don't Care
TTITLE16=I Don't Care
TTITLE17=Ubangi Stomp
TTITLE18=I'm Comin' Home
TTITLE19=Born To Be Bad
TTITLE20=Ain't You Got No Lovin' For Me
TTITLE21=Don't Let The Stars Get In Your Eyes
TTITLE22=When I Grow Too Old To Dream
TTITLE23=Mountain Dew
TTITLE24=If I Could Change You
TTITLE25=Even Tho'
TTITLE26=Because Of You
TTITLE27=Long Black Veil
EXTD=
EXTT0=
EXTT1=
EXTT2=
EXTT3=
EXTT4=
EXTT5=
EXTT6=
EXTT7=
EXTT8=
EXTT9=
EXTT10=
EXTT11=
EXTT12=
EXTT13=
EXTT14=
EXTT15=
EXTT16=
EXTT17=
EXTT18=
EXTT19=
EXTT20=
EXTT21=
EXTT22=
EXTT23=
EXTT24=
EXTT25=
EXTT26=
EXTT27=
PLAYORDER=
